Coordinates
version=1
nRows=12
nColumns=34
inDegrees=no

Units are S.I. units (second, meters, Newtons, ...)
If the header above contains a line with 'inDegrees', this indicates whether rotational values are in degrees (yes) or radians (no).

endheader
time	pelvis_tilt	pelvis_list	pelvis_rotation	pelvis_tx	pelvis_ty	pelvis_tz	hip_flexion_r	hip_adduction_r	hip_rotation_r	knee_angle_r	ankle_angle_r	subtalar_angle_r	mtp_angle_r	hip_flexion_l	hip_adduction_l	hip_rotation_l	knee_angle_l	ankle_angle_l	subtalar_angle_l	mtp_angle_l	lumbar_extension	lumbar_bending	lumbar_rotation	arm_flex_r	arm_add_r	arm_rot_r	elbow_flex_r	pro_sup_r	arm_flex_l	arm_add_l	arm_rot_l	elbow_flex_l	pro_sup_l
10.11	-0.386977	-0.0179255	-6.72766e-05	-0.282225	0.990839	-0.654231	0.771591	-0.16868	-0.2063	0.523324	0.125395	-0.0660507	-0.00815226	0.778128	-0.242592	-0.281131	0.527272	0.180699	0.251056	-0.00814954	-0.138916	0.0294093	0.000392347	1.10082	-0.160355	0.253324	2.08002	1.89614	1.075	-0.201561	0.337229	2.09212	2.06002
10.12	-0.379628	-0.0176552	0.00154578	-0.278855	0.99467	-0.654192	0.748713	-0.167504	-0.210915	0.502483	0.119297	-0.0607297	-0.00815225	0.754874	-0.238618	-0.286175	0.504857	0.173922	0.258564	-0.00814954	-0.137243	0.0293211	-0.000210513	1.08507	-0.161501	0.253105	2.08101	1.89507	1.05987	-0.202078	0.336563	2.09361	2.05851
10.13	-0.372278	-0.0173959	0.00320493	-0.27549	0.998387	-0.654148	0.725803	-0.166214	-0.215498	0.481505	0.113142	-0.0553728	-0.00815223	0.731546	-0.234599	-0.291284	0.482157	0.167083	0.266638	-0.00814953	-0.135609	0.0292253	-0.000901374	1.06942	-0.162676	0.253177	2.08194	1.89337	1.04474	-0.202695	0.335972	2.09506	2.05658
10.14	-0.364957	-0.0171499	0.00492913	-0.272137	1.00198	-0.654097	0.70291	-0.164804	-0.220046	0.46042	0.106958	-0.0500396	-0.00815222	0.70821	-0.230524	-0.296409	0.459209	0.160192	0.275209	-0.00814953	-0.133991	0.0291144	-0.00167872	1.05387	-0.163896	0.25349	2.08284	1.89107	1.02969	-0.203392	0.33551	2.09645	2.0545
10.15	-0.357694	-0.0169298	0.00674321	-0.268801	1.00543	-0.654041	0.68008	-0.163273	-0.224586	0.439261	0.100793	-0.0447483	-0.0081522	0.684939	-0.226386	-0.301461	0.436057	0.153249	0.284158	-0.00814952	-0.132379	0.0289935	-0.0025424	1.03846	-0.165182	0.253986	2.08377	1.88839	1.01475	-0.204159	0.335235	2.09776	2.05251
10.16	-0.350503	-0.0167542	0.00867056	-0.26549	1.00873	-0.653983	0.657352	-0.161618	-0.229162	0.418076	0.0947011	-0.0394757	-0.00815219	0.661794	-0.222176	-0.306327	0.412744	0.14625	0.293326	-0.00814952	-0.130781	0.0288789	-0.00349221	1.02322	-0.166549	0.254614	2.08477	1.88563	1	-0.204988	0.335202	2.09899	2.05081
10.17	-0.343383	-0.0166421	0.0107272	-0.262211	1.01188	-0.653926	0.634756	-0.159843	-0.233828	0.396926	0.088735	-0.0341643	-0.00815217	0.638818	-0.217892	-0.310878	0.389316	0.139196	0.302525	-0.00814951	-0.12923	0.0287947	-0.00452566	1.00822	-0.168012	0.255337	2.08585	1.88311	0.985506	-0.205875	0.335448	2.10015	2.04949
10.18	-0.336314	-0.0166113	0.0129174	-0.258971	1.01488	-0.653873	0.612317	-0.157953	-0.238636	0.375892	0.082943	-0.0287319	-0.00815216	0.616029	-0.213537	-0.314977	0.365816	0.13209	0.311558	-0.00814951	-0.12778	0.0287709	-0.00563446	0.993537	-0.169578	0.256129	2.08701	1.88116	0.971317	-0.206814	0.335985	2.10126	2.04858
10.19	-0.329256	-0.016677	0.0152308	-0.255779	1.0177	-0.65383	0.590055	-0.155958	-0.243628	0.355077	0.0773737	-0.0230845	-0.00815214	0.59342	-0.209124	-0.31849	0.342287	0.124941	0.320231	-0.0081495	-0.126509	0.0288415	-0.0068	0.979265	-0.171245	0.256966	2.08824	1.88007	0.957487	-0.207792	0.336794	2.10233	2.04798
10.2	-0.322163	-0.016851	0.0176405	-0.252642	1.02037	-0.6538	0.567993	-0.153864	-0.248832	0.334602	0.0720807	-0.0171338	-0.00815213	0.570968	-0.204681	-0.321295	0.318777	0.117768	0.328367	-0.0081495	-0.125498	0.0290397	-0.00799008	0.965484	-0.173001	0.257823	2.08952	1.88013	0.944061	-0.208786	0.337825	2.10338	2.04761
10.21	-0.314993	-0.0171374	0.0201041	-0.249568	1.02286	-0.653784	0.546172	-0.151683	-0.25425	0.314604	0.0671241	-0.0108201	-0.00815211	0.548658	-0.200245	-0.323301	0.295343	0.110596	0.335819	-0.00814949	-0.124818	0.0293912	-0.00916057	0.952264	-0.174831	0.258669	2.09083	1.88158	0.931065	-0.209769	0.338998	2.10442	2.04736
10.22	-0.307724	-0.0175271	0.0225664	-0.246563	1.02519	-0.653781	0.524656	-0.149433	-0.259851	0.295232	0.0625707	-0.00412831	-0.0081521	0.526484	-0.195861	-0.324449	0.272049	0.10346	0.342465	-0.00814949	-0.124514	0.0299053	-0.010264	0.939653	-0.176712	0.259478	2.09214	1.88456	0.918509	-0.210715	0.34021	2.10546	2.04719
